<mxfile host="app.diagrams.net" modified="2024-03-03T10:47:43.859Z" agent="Mozilla/5.0 (Windows NT 10.0; Win64; x64; rv:123.0) Gecko/20100101 Firefox/123.0" etag="eHOOLD_VzOFoQfDX-yQu" version="24.0.1" type="github">
  <diagram name="Seite-1" id="lAe8fWLy_MNchsyFahVC">
    <mxGraphModel dx="1195" dy="622" grid="1" gridSize="10" guides="1" tooltips="1" connect="1" arrows="1" fold="1" page="1" pageScale="1" pageWidth="827" pageHeight="1169" math="0" shadow="0">
      <root>
        <mxCell id="0" />
        <mxCell id="1" parent="0" />
        <mxCell id="2uUQrK0zqsVHOmAC8gyb-10" value="&lt;div&gt;Unit Turn&lt;/div&gt;" style="swimlane;fontStyle=0;childLayout=stackLayout;horizontal=1;startSize=30;horizontalStack=0;resizeParent=1;resizeParentMax=0;resizeLast=0;collapsible=1;marginBottom=0;whiteSpace=wrap;html=1;strokeWidth=1;" vertex="1" parent="1">
          <mxGeometry x="540" y="120" width="170" height="120" as="geometry" />
        </mxCell>
        <mxCell id="2uUQrK0zqsVHOmAC8gyb-11" value="1. Check AP &amp;amp; display available actions" style="text;strokeColor=default;fillColor=none;align=left;verticalAlign=middle;spacingLeft=4;spacingRight=4;overflow=hidden;points=[[0,0.5],[1,0.5]];portConstraint=eastwest;rotatable=0;whiteSpace=wrap;html=1;strokeWidth=1;" vertex="1" parent="2uUQrK0zqsVHOmAC8gyb-10">
          <mxGeometry y="30" width="170" height="30" as="geometry" />
        </mxCell>
        <mxCell id="2uUQrK0zqsVHOmAC8gyb-12" value="2. Perform chosen action" style="text;strokeColor=default;fillColor=none;align=left;verticalAlign=middle;spacingLeft=4;spacingRight=4;overflow=hidden;points=[[0,0.5],[1,0.5]];portConstraint=eastwest;rotatable=0;whiteSpace=wrap;html=1;strokeWidth=1;" vertex="1" parent="2uUQrK0zqsVHOmAC8gyb-10">
          <mxGeometry y="60" width="170" height="30" as="geometry" />
        </mxCell>
        <mxCell id="2uUQrK0zqsVHOmAC8gyb-13" value="3. Remove AP for action" style="text;strokeColor=default;fillColor=none;align=left;verticalAlign=middle;spacingLeft=4;spacingRight=4;overflow=hidden;points=[[0,0.5],[1,0.5]];portConstraint=eastwest;rotatable=0;whiteSpace=wrap;html=1;strokeWidth=1;" vertex="1" parent="2uUQrK0zqsVHOmAC8gyb-10">
          <mxGeometry y="90" width="170" height="30" as="geometry" />
        </mxCell>
        <mxCell id="2uUQrK0zqsVHOmAC8gyb-42" style="edgeStyle=orthogonalEdgeStyle;rounded=0;orthogonalLoop=1;jettySize=auto;html=1;exitX=1;exitY=0.5;exitDx=0;exitDy=0;strokeWidth=1;" edge="1" parent="2uUQrK0zqsVHOmAC8gyb-10" source="2uUQrK0zqsVHOmAC8gyb-11" target="2uUQrK0zqsVHOmAC8gyb-11">
          <mxGeometry relative="1" as="geometry" />
        </mxCell>
        <mxCell id="2uUQrK0zqsVHOmAC8gyb-21" value="IF AP = 0" style="swimlane;fontStyle=0;childLayout=stackLayout;horizontal=1;startSize=30;horizontalStack=0;resizeParent=1;resizeParentMax=0;resizeLast=0;collapsible=1;marginBottom=0;whiteSpace=wrap;html=1;strokeWidth=1;" vertex="1" parent="1">
          <mxGeometry x="470" y="300" width="140" height="60" as="geometry" />
        </mxCell>
        <mxCell id="2uUQrK0zqsVHOmAC8gyb-22" value="End the unit&#39;s turn" style="text;strokeColor=none;fillColor=none;align=left;verticalAlign=middle;spacingLeft=4;spacingRight=4;overflow=hidden;points=[[0,0.5],[1,0.5]];portConstraint=eastwest;rotatable=0;whiteSpace=wrap;html=1;strokeWidth=1;" vertex="1" parent="2uUQrK0zqsVHOmAC8gyb-21">
          <mxGeometry y="30" width="140" height="30" as="geometry" />
        </mxCell>
        <mxCell id="2uUQrK0zqsVHOmAC8gyb-37" value="IF AP &amp;gt; 0" style="swimlane;fontStyle=0;childLayout=stackLayout;horizontal=1;startSize=30;horizontalStack=0;resizeParent=1;resizeParentMax=0;resizeLast=0;collapsible=1;marginBottom=0;whiteSpace=wrap;html=1;strokeWidth=1;" vertex="1" parent="1">
          <mxGeometry x="640" y="300" width="140" height="60" as="geometry" />
        </mxCell>
        <mxCell id="2uUQrK0zqsVHOmAC8gyb-38" value="Select remaining action" style="text;strokeColor=none;fillColor=none;align=left;verticalAlign=middle;spacingLeft=4;spacingRight=4;overflow=hidden;points=[[0,0.5],[1,0.5]];portConstraint=eastwest;rotatable=0;whiteSpace=wrap;html=1;strokeWidth=1;" vertex="1" parent="2uUQrK0zqsVHOmAC8gyb-37">
          <mxGeometry y="30" width="140" height="30" as="geometry" />
        </mxCell>
        <mxCell id="2uUQrK0zqsVHOmAC8gyb-52" style="edgeStyle=orthogonalEdgeStyle;rounded=0;orthogonalLoop=1;jettySize=auto;html=1;exitX=0;exitY=0.5;exitDx=0;exitDy=0;entryX=0.25;entryY=0;entryDx=0;entryDy=0;" edge="1" parent="1" source="2uUQrK0zqsVHOmAC8gyb-51" target="2uUQrK0zqsVHOmAC8gyb-21">
          <mxGeometry relative="1" as="geometry" />
        </mxCell>
        <mxCell id="2uUQrK0zqsVHOmAC8gyb-53" style="edgeStyle=orthogonalEdgeStyle;rounded=0;orthogonalLoop=1;jettySize=auto;html=1;exitX=1;exitY=0.5;exitDx=0;exitDy=0;entryX=0.75;entryY=0;entryDx=0;entryDy=0;" edge="1" parent="1" source="2uUQrK0zqsVHOmAC8gyb-51" target="2uUQrK0zqsVHOmAC8gyb-37">
          <mxGeometry relative="1" as="geometry" />
        </mxCell>
        <mxCell id="2uUQrK0zqsVHOmAC8gyb-51" value="&lt;div&gt;4. Check end conditions&lt;/div&gt;" style="text;strokeColor=default;fillColor=none;align=left;verticalAlign=middle;spacingLeft=4;spacingRight=4;overflow=hidden;points=[[0,0.5],[1,0.5]];portConstraint=eastwest;rotatable=0;whiteSpace=wrap;html=1;strokeWidth=1;" vertex="1" parent="1">
          <mxGeometry x="540" y="240" width="170" height="30" as="geometry" />
        </mxCell>
        <mxCell id="2uUQrK0zqsVHOmAC8gyb-55" value="Game Start" style="swimlane;fontStyle=0;childLayout=stackLayout;horizontal=1;startSize=30;horizontalStack=0;resizeParent=1;resizeParentMax=0;resizeLast=0;collapsible=1;marginBottom=0;whiteSpace=wrap;html=1;strokeWidth=1;" vertex="1" parent="1">
          <mxGeometry x="40" y="40" width="160" height="90" as="geometry" />
        </mxCell>
        <mxCell id="2uUQrK0zqsVHOmAC8gyb-56" value="1. Load level and units" style="text;strokeColor=default;fillColor=none;align=left;verticalAlign=middle;spacingLeft=4;spacingRight=4;overflow=hidden;points=[[0,0.5],[1,0.5]];portConstraint=eastwest;rotatable=0;whiteSpace=wrap;html=1;strokeWidth=1;" vertex="1" parent="2uUQrK0zqsVHOmAC8gyb-55">
          <mxGeometry y="30" width="160" height="30" as="geometry" />
        </mxCell>
        <mxCell id="2uUQrK0zqsVHOmAC8gyb-57" value="&lt;div&gt;2. End startup&lt;/div&gt;" style="text;strokeColor=default;fillColor=none;align=left;verticalAlign=middle;spacingLeft=4;spacingRight=4;overflow=hidden;points=[[0,0.5],[1,0.5]];portConstraint=eastwest;rotatable=0;whiteSpace=wrap;html=1;strokeWidth=1;" vertex="1" parent="2uUQrK0zqsVHOmAC8gyb-55">
          <mxGeometry y="60" width="160" height="30" as="geometry" />
        </mxCell>
        <mxCell id="2uUQrK0zqsVHOmAC8gyb-59" style="edgeStyle=orthogonalEdgeStyle;rounded=0;orthogonalLoop=1;jettySize=auto;html=1;exitX=1;exitY=0.5;exitDx=0;exitDy=0;strokeWidth=1;" edge="1" parent="2uUQrK0zqsVHOmAC8gyb-55" source="2uUQrK0zqsVHOmAC8gyb-56" target="2uUQrK0zqsVHOmAC8gyb-56">
          <mxGeometry relative="1" as="geometry" />
        </mxCell>
        <mxCell id="2uUQrK0zqsVHOmAC8gyb-64" value="Initiative Phase" style="swimlane;fontStyle=0;childLayout=stackLayout;horizontal=1;startSize=30;horizontalStack=0;resizeParent=1;resizeParentMax=0;resizeLast=0;collapsible=1;marginBottom=0;whiteSpace=wrap;html=1;strokeWidth=1;" vertex="1" parent="1">
          <mxGeometry x="240" y="40" width="160" height="60" as="geometry" />
        </mxCell>
        <mxCell id="2uUQrK0zqsVHOmAC8gyb-65" value="Roll for initiative" style="text;strokeColor=default;fillColor=none;align=left;verticalAlign=middle;spacingLeft=4;spacingRight=4;overflow=hidden;points=[[0,0.5],[1,0.5]];portConstraint=eastwest;rotatable=0;whiteSpace=wrap;html=1;strokeWidth=1;" vertex="1" parent="2uUQrK0zqsVHOmAC8gyb-64">
          <mxGeometry y="30" width="160" height="30" as="geometry" />
        </mxCell>
        <mxCell id="2uUQrK0zqsVHOmAC8gyb-67" style="edgeStyle=orthogonalEdgeStyle;rounded=0;orthogonalLoop=1;jettySize=auto;html=1;exitX=1;exitY=0.5;exitDx=0;exitDy=0;strokeWidth=1;" edge="1" parent="2uUQrK0zqsVHOmAC8gyb-64" source="2uUQrK0zqsVHOmAC8gyb-65" target="2uUQrK0zqsVHOmAC8gyb-65">
          <mxGeometry relative="1" as="geometry" />
        </mxCell>
        <mxCell id="2uUQrK0zqsVHOmAC8gyb-70" style="edgeStyle=orthogonalEdgeStyle;rounded=0;orthogonalLoop=1;jettySize=auto;html=1;exitX=1;exitY=0.5;exitDx=0;exitDy=0;" edge="1" parent="1" source="2uUQrK0zqsVHOmAC8gyb-57" target="2uUQrK0zqsVHOmAC8gyb-65">
          <mxGeometry relative="1" as="geometry" />
        </mxCell>
        <mxCell id="2uUQrK0zqsVHOmAC8gyb-71" value="Action phase" style="swimlane;fontStyle=0;childLayout=stackLayout;horizontal=1;startSize=30;horizontalStack=0;resizeParent=1;resizeParentMax=0;resizeLast=0;collapsible=1;marginBottom=0;whiteSpace=wrap;html=1;strokeWidth=1;" vertex="1" parent="1">
          <mxGeometry x="440" y="40" width="160" height="60" as="geometry" />
        </mxCell>
        <mxCell id="2uUQrK0zqsVHOmAC8gyb-72" value="Start unit turnof first in the initiative list" style="text;strokeColor=default;fillColor=none;align=left;verticalAlign=middle;spacingLeft=4;spacingRight=4;overflow=hidden;points=[[0,0.5],[1,0.5]];portConstraint=eastwest;rotatable=0;whiteSpace=wrap;html=1;strokeWidth=1;" vertex="1" parent="2uUQrK0zqsVHOmAC8gyb-71">
          <mxGeometry y="30" width="160" height="30" as="geometry" />
        </mxCell>
        <mxCell id="2uUQrK0zqsVHOmAC8gyb-73" style="edgeStyle=orthogonalEdgeStyle;rounded=0;orthogonalLoop=1;jettySize=auto;html=1;exitX=1;exitY=0.5;exitDx=0;exitDy=0;strokeWidth=1;" edge="1" parent="2uUQrK0zqsVHOmAC8gyb-71" source="2uUQrK0zqsVHOmAC8gyb-72" target="2uUQrK0zqsVHOmAC8gyb-72">
          <mxGeometry relative="1" as="geometry" />
        </mxCell>
        <mxCell id="2uUQrK0zqsVHOmAC8gyb-75" style="edgeStyle=orthogonalEdgeStyle;rounded=0;orthogonalLoop=1;jettySize=auto;html=1;exitX=1;exitY=0.5;exitDx=0;exitDy=0;entryX=0;entryY=0.5;entryDx=0;entryDy=0;" edge="1" parent="1" source="2uUQrK0zqsVHOmAC8gyb-65" target="2uUQrK0zqsVHOmAC8gyb-72">
          <mxGeometry relative="1" as="geometry" />
        </mxCell>
        <mxCell id="2uUQrK0zqsVHOmAC8gyb-76" style="edgeStyle=orthogonalEdgeStyle;rounded=0;orthogonalLoop=1;jettySize=auto;html=1;exitX=1;exitY=0.5;exitDx=0;exitDy=0;entryX=0.5;entryY=0;entryDx=0;entryDy=0;" edge="1" parent="1" source="2uUQrK0zqsVHOmAC8gyb-72" target="2uUQrK0zqsVHOmAC8gyb-10">
          <mxGeometry relative="1" as="geometry" />
        </mxCell>
        <mxCell id="2uUQrK0zqsVHOmAC8gyb-77" value="End turn" style="swimlane;fontStyle=0;childLayout=stackLayout;horizontal=1;startSize=30;horizontalStack=0;resizeParent=1;resizeParentMax=0;resizeLast=0;collapsible=1;marginBottom=0;whiteSpace=wrap;html=1;strokeWidth=1;" vertex="1" parent="1">
          <mxGeometry x="240" y="370" width="160" height="60" as="geometry" />
        </mxCell>
        <mxCell id="2uUQrK0zqsVHOmAC8gyb-78" value="Reduce initiative value" style="text;strokeColor=default;fillColor=none;align=left;verticalAlign=middle;spacingLeft=4;spacingRight=4;overflow=hidden;points=[[0,0.5],[1,0.5]];portConstraint=eastwest;rotatable=0;whiteSpace=wrap;html=1;strokeWidth=1;" vertex="1" parent="2uUQrK0zqsVHOmAC8gyb-77">
          <mxGeometry y="30" width="160" height="30" as="geometry" />
        </mxCell>
        <mxCell id="2uUQrK0zqsVHOmAC8gyb-79" style="edgeStyle=orthogonalEdgeStyle;rounded=0;orthogonalLoop=1;jettySize=auto;html=1;exitX=1;exitY=0.5;exitDx=0;exitDy=0;strokeWidth=1;" edge="1" parent="2uUQrK0zqsVHOmAC8gyb-77" source="2uUQrK0zqsVHOmAC8gyb-78" target="2uUQrK0zqsVHOmAC8gyb-78">
          <mxGeometry relative="1" as="geometry" />
        </mxCell>
        <mxCell id="2uUQrK0zqsVHOmAC8gyb-80" style="edgeStyle=orthogonalEdgeStyle;rounded=0;orthogonalLoop=1;jettySize=auto;html=1;exitX=1;exitY=0.5;exitDx=0;exitDy=0;entryX=1;entryY=0.5;entryDx=0;entryDy=0;" edge="1" parent="1" source="2uUQrK0zqsVHOmAC8gyb-38" target="2uUQrK0zqsVHOmAC8gyb-11">
          <mxGeometry relative="1" as="geometry" />
        </mxCell>
        <mxCell id="2uUQrK0zqsVHOmAC8gyb-82" style="edgeStyle=orthogonalEdgeStyle;rounded=0;orthogonalLoop=1;jettySize=auto;html=1;exitX=0;exitY=0.5;exitDx=0;exitDy=0;" edge="1" parent="1" source="2uUQrK0zqsVHOmAC8gyb-22" target="2uUQrK0zqsVHOmAC8gyb-77">
          <mxGeometry relative="1" as="geometry" />
        </mxCell>
        <mxCell id="2uUQrK0zqsVHOmAC8gyb-101" style="edgeStyle=orthogonalEdgeStyle;rounded=0;orthogonalLoop=1;jettySize=auto;html=1;exitX=1;exitY=0.5;exitDx=0;exitDy=0;entryX=0.5;entryY=0;entryDx=0;entryDy=0;" edge="1" parent="1" source="2uUQrK0zqsVHOmAC8gyb-83" target="2uUQrK0zqsVHOmAC8gyb-97">
          <mxGeometry relative="1" as="geometry" />
        </mxCell>
        <mxCell id="2uUQrK0zqsVHOmAC8gyb-102" style="edgeStyle=orthogonalEdgeStyle;rounded=0;orthogonalLoop=1;jettySize=auto;html=1;exitX=0;exitY=0.5;exitDx=0;exitDy=0;" edge="1" parent="1" source="2uUQrK0zqsVHOmAC8gyb-83" target="2uUQrK0zqsVHOmAC8gyb-93">
          <mxGeometry relative="1" as="geometry">
            <Array as="points">
              <mxPoint x="230" y="445" />
            </Array>
          </mxGeometry>
        </mxCell>
        <mxCell id="2uUQrK0zqsVHOmAC8gyb-83" value="Check for remaining units" style="text;strokeColor=default;fillColor=none;align=left;verticalAlign=middle;spacingLeft=4;spacingRight=4;overflow=hidden;points=[[0,0.5],[1,0.5]];portConstraint=eastwest;rotatable=0;whiteSpace=wrap;html=1;strokeWidth=1;" vertex="1" parent="1">
          <mxGeometry x="240" y="430" width="160" height="30" as="geometry" />
        </mxCell>
        <mxCell id="2uUQrK0zqsVHOmAC8gyb-88" value="Current faction wins" style="ellipse;whiteSpace=wrap;html=1;" vertex="1" parent="1">
          <mxGeometry x="520" y="490" width="120" height="80" as="geometry" />
        </mxCell>
        <mxCell id="2uUQrK0zqsVHOmAC8gyb-105" style="edgeStyle=orthogonalEdgeStyle;rounded=0;orthogonalLoop=1;jettySize=auto;html=1;exitX=0;exitY=0.5;exitDx=0;exitDy=0;" edge="1" parent="1" source="2uUQrK0zqsVHOmAC8gyb-93" target="2uUQrK0zqsVHOmAC8gyb-103">
          <mxGeometry relative="1" as="geometry" />
        </mxCell>
        <mxCell id="2uUQrK0zqsVHOmAC8gyb-110" style="edgeStyle=orthogonalEdgeStyle;rounded=0;orthogonalLoop=1;jettySize=auto;html=1;exitX=0;exitY=0.5;exitDx=0;exitDy=0;entryX=0;entryY=0.5;entryDx=0;entryDy=0;" edge="1" parent="1" source="2uUQrK0zqsVHOmAC8gyb-93" target="2uUQrK0zqsVHOmAC8gyb-104">
          <mxGeometry relative="1" as="geometry" />
        </mxCell>
        <mxCell id="2uUQrK0zqsVHOmAC8gyb-93" value="enemies remaining" style="rounded=0;whiteSpace=wrap;html=1;" vertex="1" parent="1">
          <mxGeometry x="190" y="500" width="120" height="60" as="geometry" />
        </mxCell>
        <mxCell id="2uUQrK0zqsVHOmAC8gyb-100" style="edgeStyle=orthogonalEdgeStyle;rounded=0;orthogonalLoop=1;jettySize=auto;html=1;exitX=1;exitY=0.5;exitDx=0;exitDy=0;entryX=0;entryY=0.5;entryDx=0;entryDy=0;" edge="1" parent="1" source="2uUQrK0zqsVHOmAC8gyb-97" target="2uUQrK0zqsVHOmAC8gyb-88">
          <mxGeometry relative="1" as="geometry" />
        </mxCell>
        <mxCell id="2uUQrK0zqsVHOmAC8gyb-97" value="&lt;div&gt;no enemies left&lt;/div&gt;" style="rounded=0;whiteSpace=wrap;html=1;" vertex="1" parent="1">
          <mxGeometry x="360" y="500" width="120" height="60" as="geometry" />
        </mxCell>
        <mxCell id="2uUQrK0zqsVHOmAC8gyb-108" style="edgeStyle=orthogonalEdgeStyle;rounded=0;orthogonalLoop=1;jettySize=auto;html=1;exitX=0.5;exitY=0;exitDx=0;exitDy=0;" edge="1" parent="1" source="2uUQrK0zqsVHOmAC8gyb-103" target="2uUQrK0zqsVHOmAC8gyb-65">
          <mxGeometry relative="1" as="geometry">
            <Array as="points">
              <mxPoint x="80" y="160" />
              <mxPoint x="220" y="160" />
              <mxPoint x="220" y="85" />
            </Array>
          </mxGeometry>
        </mxCell>
        <mxCell id="2uUQrK0zqsVHOmAC8gyb-103" value="No unit has initiative left" style="rounded=0;whiteSpace=wrap;html=1;" vertex="1" parent="1">
          <mxGeometry x="40" y="240" width="80" height="60" as="geometry" />
        </mxCell>
        <mxCell id="2uUQrK0zqsVHOmAC8gyb-109" style="edgeStyle=orthogonalEdgeStyle;rounded=0;orthogonalLoop=1;jettySize=auto;html=1;exitX=1;exitY=0.5;exitDx=0;exitDy=0;entryX=0;entryY=0.5;entryDx=0;entryDy=0;" edge="1" parent="1" source="2uUQrK0zqsVHOmAC8gyb-104" target="2uUQrK0zqsVHOmAC8gyb-72">
          <mxGeometry relative="1" as="geometry">
            <Array as="points">
              <mxPoint x="420" y="270" />
              <mxPoint x="420" y="85" />
            </Array>
          </mxGeometry>
        </mxCell>
        <mxCell id="2uUQrK0zqsVHOmAC8gyb-104" value="Units have remaining initiative" style="rounded=0;whiteSpace=wrap;html=1;" vertex="1" parent="1">
          <mxGeometry x="240" y="240" width="80" height="60" as="geometry" />
        </mxCell>
      </root>
    </mxGraphModel>
  </diagram>
</mxfile>
